<?xml version="1.0" standalone="no"?>
<!DOCTYPE svg PUBLIC "-//W3C//DTD SVG 20010904//EN"
 "http://www.w3.org/TR/2001/REC-SVG-20010904/DTD/svg10.dtd">
<svg version="1.0" xmlns="http://www.w3.org/2000/svg"
 width="254.000000pt" height="267.000000pt" viewBox="0 0 254.000000 267.000000"
 preserveAspectRatio="xMidYMid meet">
<metadata>
Created by potrace 1.10, written by Peter Selinger 2001-2011
</metadata>
<g transform="translate(0.000000,267.000000) scale(0.100000,-0.100000)"
fill="#000000" stroke="none">
<path d="M1198 2500 c-59 -32 -83 -74 -83 -147 0 -55 3 -65 33 -100 18 -21 45
-55 60 -75 27 -37 55 -48 67 -27 8 11 -39 84 -67 103 -45 31 -62 121 -32 164
21 31 66 52 110 52 28 0 44 -8 71 -35 31 -31 35 -40 30 -72 -8 -48 -33 -73
-72 -73 -45 0 -72 31 -59 68 6 17 18 28 32 30 27 4 38 -18 23 -46 -8 -15 -7
-23 5 -33 35 -29 66 58 34 97 -38 44 -106 35 -135 -20 -21 -40 -15 -77 20
-111 70 -71 179 -26 199 81 21 111 -128 203 -236 144z"/>
<path d="M1610 2264 c-45 -20 -68 -41 -91 -86 -32 -62 -19 -164 19 -156 14 3
16 13 14 58 -4 68 24 117 80 138 48 19 83 9 125 -33 41 -41 45 -90 11 -129
-33 -36 -68 -42 -101 -16 -30 24 -35 60 -11 84 19 19 36 20 52 4 18 -18 14
-36 -9 -43 -24 -8 -22 -38 4 -43 42 -8 75 53 52 97 -30 59 -100 61 -144 5 -25
-31 -27 -64 -7 -103 55 -106 213 -70 233 54 12 73 -45 152 -124 174 -49 14
-61 13 -103 -5z"/>
<path d="M871 2250 c-80 -20 -124 -83 -118 -169 3 -47 9 -59 40 -88 44 -39 79
-45 140 -21 57 22 77 119 33 163 -51 50 -117 37 -141 -29 -13 -37 11 -80 47
-84 33 -4 45 23 18 38 -27 14 -25 47 2 56 16 5 27 1 40 -16 22 -27 22 -39 0
-67 -29 -37 -65 -39 -100 -6 -17 15 -32 35 -33 43 -5 46 4 74 29 100 38 38 89
47 137 25 55 -27 92 -113 66 -154 -13 -20 -2 -41 19 -41 11 0 22 12 29 31 16
46 14 68 -13 125 -37 79 -112 115 -195 94z"/>
<path d="M1256 2111 c-8 -12 9 -57 24 -66 6 -4 17 -2 25 5 19 16 0 70 -25 70
-11 0 -21 -4 -24 -9z"/>
<path d="M1205 2001 c-89 -41 -146 -138 -146 -247 0 -201 197 -327 396 -253
55 20 66 34 44 56 -9 9 -19 8 -40 -3 -148 -76 -324 7 -353 167 -11 60 11 136
53 182 65 72 149 88 228 42 52 -31 73 -68 73 -129 0 -79 -76 -142 -142 -117
-62 24 -86 86 -50 131 22 27 67 30 90 6 14 -14 14 -21 3 -52 -17 -46 -2 -67
28 -40 61 55 15 155 -72 156 -106 0 -154 -131 -76 -209 110 -111 285 -8 266
157 -14 129 -176 211 -302 153z"/>
<path d="M1541 1980 c-9 -5 -11 -20 -6 -49 5 -31 11 -41 26 -41 16 0 19 7 19
44 0 45 -15 62 -39 46z"/>
<path d="M1000 1960 c-16 -29 -9 -74 12 -78 12 -2 20 8 28 38 6 22 8 45 5 50
-10 17 -34 11 -45 -10z"/>
<path d="M1803 1933 c-74 -26 -144 -132 -93 -140 8 -2 24 12 35 29 30 47 68
70 124 76 62 6 101 -9 141 -54 54 -62 52 -149 -4 -209 -28 -29 -40 -35 -75
-35 -100 0 -155 84 -100 154 25 32 70 35 99 6 23 -23 24 -33 9 -61 -9 -17 -17
-19 -50 -14 -35 6 -39 5 -39 -14 0 -14 9 -25 26 -31 38 -15 49 -13 83 16 36
30 42 78 14 125 -35 59 -123 63 -174 8 -86 -92 -11 -239 121 -239 155 0 235
204 128 326 -62 71 -150 91 -245 57z"/>
<path d="M612 1914 c-45 -23 -92 -71 -108 -111 -30 -71 -8 -180 47 -230 32
-29 105 -48 153 -39 21 4 53 21 74 40 32 30 36 40 40 93 4 58 3 63 -30 98 -27
29 -43 38 -79 42 -39 5 -48 2 -76 -24 -43 -40 -51 -77 -27 -122 23 -43 63 -58
105 -41 31 13 37 28 18 47 -9 9 -16 9 -30 0 -14 -9 -24 -9 -37 -1 -41 26 -15
94 38 94 73 0 99 -99 40 -152 -57 -52 -147 -32 -185 42 -22 42 -19 116 5 156
61 98 223 97 282 -2 21 -36 50 -43 56 -13 5 25 -53 94 -94 114 -54 26 -150 30
-192 9z"/>
<path d="M990 1845 c-18 -22 5 -85 32 -85 18 0 20 4 14 42 -10 61 -22 72 -46
43z"/>
<path d="M1537 1853 c-3 -4 -8 -24 -12 -44 -5 -28 -3 -38 8 -42 21 -8 36 13
39 53 2 25 -1 35 -14 38 -9 2 -18 -1 -21 -5z"/>
<path d="M1632 1743 c-35 -50 5 -77 41 -27 15 20 16 28 7 39 -17 21 -26 19
-48 -12z"/>
<path d="M904 1729 c-8 -14 28 -63 50 -67 25 -5 30 24 9 52 -19 27 -47 34 -59
15z"/>
<path d="M1552 1640 c-26 -34 -28 -56 -7 -64 9 -3 24 7 40 28 30 39 30 42 7
55 -15 8 -23 4 -40 -19z"/>
<path d="M999 1634 c-11 -14 -9 -20 19 -45 18 -16 37 -29 42 -29 20 0 22 31 4
51 -30 34 -50 41 -65 23z"/>
<path d="M477 1525 c-4 -8 -4 -24 -2 -36 3 -13 5 -77 6 -144 2 -145 -8 -174
-94 -279 -45 -54 -57 -76 -57 -103 0 -47 13 -67 65 -103 65 -45 77 -76 106
-283 13 -98 37 -139 95 -168 40 -19 55 -21 137 -14 145 10 222 9 245 -6 31
-20 50 -64 77 -185 13 -59 32 -115 41 -125 16 -18 38 -19 395 -19 l378 0 19
25 c19 24 19 29 6 83 -66 274 -74 388 -33 487 14 33 48 92 76 130 150 205 212
396 200 612 -6 104 -17 143 -42 143 -19 0 -23 -19 -14 -60 14 -59 10 -227 -7
-303 -22 -97 -86 -229 -177 -365 -43 -63 -83 -136 -92 -165 -31 -104 -14 -291
44 -495 7 -24 7 -34 -2 -38 -7 -2 -172 -3 -367 -2 l-354 3 -13 65 c-7 36 -20
88 -29 115 -50 156 -81 169 -344 149 -146 -11 -180 17 -194 156 -4 36 -9 77
-12 92 -5 27 -5 27 63 30 62 3 68 5 71 26 3 21 0 22 -71 22 l-75 0 -22 44
c-13 28 -41 60 -75 85 -30 23 -55 49 -55 57 0 9 18 36 40 61 58 66 99 131 111
177 8 31 8 270 -1 344 -1 10 -39 -1 -43 -13z"/>
<path d="M596 1268 c-13 -19 -14 -25 -2 -43 7 -11 21 -21 30 -23 42 -9 64 58
27 78 -28 15 -38 13 -55 -12z"/>
</g>
</svg>
